<?xml version="1.0" standalone="yes"?>

<svg version="1.1" viewBox="0.0 0.0 400.0 400.0" fill="none" stroke="none" stroke-linecap="square" stroke-miterlimit="10" xmlns="http://www.w3.org/2000/svg" xmlns:xlink="http://www.w3.org/1999/xlink"><clipPath id="p.0"><path d="m0 0l400.0 0l0 400.0l-400.0 0l0 -400.0z" clip-rule="nonzero"></path></clipPath><g clip-path="url(#p.0)"><path fill="#000000" fill-opacity="0.0" d="m0 0l400.0 0l0 400.0l-400.0 0z" fill-rule="nonzero"></path><path fill="#000000" fill-opacity="0.0" d="m0 0l400.0 0l0 400.0l-400.0 0z" fill-rule="nonzero"></path><path stroke="#000000" stroke-width="2.0" stroke-linejoin="round" stroke-linecap="butt" stroke-dasharray="8.0,6.0" d="m0 0l400.0 0l0 400.0l-400.0 0z" fill-rule="nonzero"></path><path fill="#000000" fill-opacity="0.0" d="m83.51187 195.47234l0 0c0 -88.62648 52.146484 -160.47244 116.47244 -160.47244l0 0c30.890411 0 60.515625 16.906872 82.35846 47.001293c21.842804 30.094421 34.113983 70.91121 34.113983 113.471146l0 0c0 88.62648 -52.146484 160.47246 -116.47244 160.47246l0 0c-64.32596 0 -116.47244 -71.84598 -116.47244 -160.47246z" fill-rule="nonzero"></path><path stroke="#000000" stroke-width="1.0" stroke-linejoin="round" stroke-linecap="butt" d="m83.51187 195.47234l0 0c0 -88.62648 52.146484 -160.47244 116.47244 -160.47244l0 0c30.890411 0 60.515625 16.906872 82.35846 47.001293c21.842804 30.094421 34.113983 70.91121 34.113983 113.471146l0 0c0 88.62648 -52.146484 160.47246 -116.47244 160.47246l0 0c-64.32596 0 -116.47244 -71.84598 -116.47244 -160.47246z" fill-rule="nonzero"></path><path fill="#000000" fill-opacity="0.0" d="m0 131.99496l400.0 0l0 93.98425l-400.0 0z" fill-rule="nonzero"></path><path stroke="#000000" stroke-width="1.0" stroke-linejoin="round" stroke-linecap="butt" d="m0 131.99496l400.0 0l0 93.98425l-400.0 0z" fill-rule="nonzero"></path></g></svg>

